<?xml version="1.0" standalone="no"?>
<!DOCTYPE svg PUBLIC "-//W3C//DTD SVG 20010904//EN"
 "http://www.w3.org/TR/2001/REC-SVG-20010904/DTD/svg10.dtd">
<svg version="1.0" xmlns="http://www.w3.org/2000/svg"
 width="512.000000pt" height="512.000000pt" viewBox="0 0 512.000000 512.000000"
 preserveAspectRatio="xMidYMid meet">
<metadata>
Created by potrace 1.11, written by Peter Selinger 2001-2013
</metadata>
<g transform="translate(0.000000,512.000000) scale(0.100000,-0.100000)"
fill="#000000" stroke="none">
<path d="M0 2560 l0 -2560 2560 0 2560 0 0 2560 0 2560 -2560 0 -2560 0 0
-2560z m2912 1376 c316 -50 570 -153 717 -292 44 -41 94 -97 112 -125 107
-167 116 -391 23 -588 -97 -207 -249 -354 -804 -779 -339 -259 -620 -480 -620
-488 0 -2 251 -4 559 -4 l559 0 129 202 129 203 41 3 c76 6 73 25 73 -457 0
-353 -2 -431 -14 -447 -14 -19 -40 -19 -1241 -22 l-1226 -2 -30 29 c-52 53
-60 43 221 290 575 506 1016 970 1213 1278 237 370 261 686 62 823 -158 109
-448 105 -591 -7 -115 -92 -165 -281 -109 -421 22 -54 16 -90 -17 -115 -36
-27 -50 -20 -158 79 -490 446 -520 475 -520 499 0 34 65 80 215 154 198 98
419 166 620 190 50 6 101 13 115 15 56 10 450 -3 542 -18z"/>
</g>
</svg>
